<svg width="14" height="16" viewBox="0 0 14 16" fill="none" xmlns="http://www.w3.org/2000/svg">
<g id="Calendar" clip-path="url(#clip0_39_21)">
<path id="Vector" d="M14 14.4005V3.20049C14 2.31809 13.3023 1.60049 12.4444 1.60049H10.8889V0.000488281H9.33333V1.60049H4.66667V0.000488281H3.11111V1.60049H1.55556C0.697667 1.60049 0 2.31809 0 3.20049V14.4005C0 15.2829 0.697667 16.0005 1.55556 16.0005H12.4444C13.3023 16.0005 14 15.2829 14 14.4005ZM4.66667 12.8005H3.11111V11.2005H4.66667V12.8005ZM4.66667 9.60049H3.11111V8.00049H4.66667V9.60049ZM7.77778 12.8005H6.22222V11.2005H7.77778V12.8005ZM7.77778 9.60049H6.22222V8.00049H7.77778V9.60049ZM10.8889 12.8005H9.33333V11.2005H10.8889V12.8005ZM10.8889 9.60049H9.33333V8.00049H10.8889V9.60049ZM12.4444 5.60049H1.55556V4.00049H12.4444V5.60049Z" fill="#8A9EBC"/>
</g>
<defs>
<clipPath id="clip0_39_21">
<rect width="14" height="16" fill="white" transform="translate(0 0.000488281)"/>
</clipPath>
</defs>
</svg>
