<svg width="423" height="408" viewBox="0 0 423 408" fill="none" xmlns="http://www.w3.org/2000/svg">
<path opacity="0.1" d="M153.316 39.3251C222.015 -18.97 324.963 -10.5365 383.258 58.1619C441.553 126.86 433.12 229.809 364.421 288.104L269.309 368.813C200.61 427.108 97.6618 418.675 39.3667 349.976C-18.9283 281.278 -10.4948 178.329 58.2036 120.034L153.316 39.3251Z" fill="url(#paint0_linear_0_74)"/>
<path d="M236.569 331.495L153.737 330.434L153.979 328.311L157.985 293.29H230.728L236.08 328.311L236.488 330.965L236.569 331.495Z" fill="#D0D2D5"/>
<path opacity="0.1" d="M236.488 330.965H195.153L153.737 330.434L153.979 328.311H236.08L236.488 330.965Z" fill="black"/>
<path d="M249.843 328.842H139.931V331.495H249.843V328.842Z" fill="#D0D2D5"/>
<path d="M354.708 82.9406C354.713 82.0336 354.538 81.1346 354.195 80.295C353.852 79.4553 353.346 78.6914 352.708 78.0469C352.069 77.4024 351.31 76.8899 350.473 76.5387C349.636 76.1875 348.738 76.0044 347.831 76H40.8815C39.9736 76.0039 39.0753 76.1865 38.238 76.5375C37.4007 76.8885 36.6408 77.4009 36.0018 78.0454C35.3627 78.69 34.857 79.454 34.5135 80.294C34.1701 81.1339 33.9956 82.0333 34.0001 82.9406V268.873H354.708V82.9406Z" fill="#444053"/>
<path d="M34.0001 267.026V288.804C34.0001 290.627 34.7251 292.377 36.0156 293.666C37.3061 294.956 39.0564 295.68 40.8815 295.68H347.831C349.655 295.679 351.404 294.954 352.694 293.665C353.984 292.375 354.708 290.627 354.708 288.804V267.026H34.0001Z" fill="#D0D2D5"/>
<path opacity="0.1" d="M343.027 87.6738H47.2744V254.822H343.027V87.6738Z" fill="#498DE4"/>
<path d="M195.947 287.415C197.033 287.416 198.105 287.17 199.082 286.696C200.059 286.223 200.916 285.534 201.588 284.681C201.792 284.421 201.978 284.147 202.145 283.862L198.211 283.217L202.459 283.251C202.869 282.363 203.092 281.402 203.115 280.425C203.139 279.448 202.962 278.477 202.595 277.571L196.89 280.542L202.153 276.679C201.659 275.832 200.995 275.095 200.204 274.514C199.412 273.933 198.51 273.521 197.552 273.303C196.595 273.085 195.603 273.067 194.638 273.248C193.673 273.429 192.756 273.807 191.943 274.357C191.13 274.907 190.439 275.619 189.913 276.447C189.386 277.275 189.036 278.203 188.883 279.172C188.731 280.141 188.779 281.132 189.025 282.082C189.271 283.031 189.71 283.921 190.314 284.694C190.986 285.544 191.842 286.23 192.818 286.701C193.793 287.172 194.863 287.417 195.947 287.415Z" fill="#498DE4"/>
<path opacity="0.1" d="M203.117 295.68L236.161 328.843L231.093 295.68H203.117Z" fill="black"/>
<path d="M248.981 117.83H57.0656C56.4556 117.83 55.9612 118.324 55.9612 118.934V233.04C55.9612 233.65 56.4556 234.144 57.0656 234.144H248.981C249.591 234.144 250.085 233.65 250.085 233.04V118.934C250.085 118.324 249.591 117.83 248.981 117.83Z" fill="white"/>
<path d="M343.112 87.6902H47.4656V97.4538H343.112V87.6902Z" fill="white"/>
<path d="M56.9042 89.3882H49.0712C48.8882 89.3882 48.7399 89.5365 48.7399 89.7194V95.0002C48.7399 95.183 48.8882 95.3313 49.0712 95.3313H56.9042C57.0871 95.3313 57.2355 95.183 57.2355 95.0002V89.7194C57.2355 89.5365 57.0871 89.3882 56.9042 89.3882Z" fill="#498DE4"/>
<path opacity="0.3" d="M238.794 89.3882H150.084C149.948 89.3882 149.837 89.4985 149.837 89.6345V95.0851C149.837 95.2211 149.948 95.3313 150.084 95.3313H238.794C238.93 95.3313 239.041 95.2211 239.041 95.0851V89.6345C239.041 89.4985 238.93 89.3882 238.794 89.3882Z" fill="#498DE4"/>
<path d="M236.394 92.9715H236.178L236.097 92.9036C236.37 92.5804 236.52 92.1717 236.522 91.749C236.519 91.4018 236.414 91.0631 236.219 90.7756C236.024 90.4882 235.748 90.265 235.426 90.134C235.105 90.0031 234.751 89.9703 234.411 90.0399C234.07 90.1095 233.758 90.2783 233.514 90.525C233.269 90.7717 233.103 91.0853 233.037 91.4261C232.971 91.767 233.007 92.1198 233.141 92.4401C233.275 92.7604 233.501 93.0338 233.791 93.2259C234.08 93.4179 234.42 93.52 234.768 93.5191C235.19 93.5166 235.599 93.3664 235.923 93.0946L236.004 93.1626V93.3833L237.363 94.7417L237.788 94.3172L236.394 92.9715ZM234.763 92.9715C234.52 92.9724 234.282 92.901 234.08 92.7666C233.877 92.6321 233.719 92.4405 233.626 92.2162C233.532 91.9918 233.508 91.7448 233.555 91.5064C233.602 91.2681 233.719 91.0491 233.891 90.8772C234.063 90.7054 234.282 90.5885 234.521 90.5413C234.759 90.4941 235.006 90.5187 235.231 90.6121C235.455 90.7055 235.647 90.8634 235.782 91.0658C235.916 91.2682 235.987 91.506 235.987 91.749C235.988 91.9098 235.957 92.0693 235.896 92.2182C235.835 92.367 235.745 92.5022 235.631 92.616C235.517 92.7297 235.382 92.8197 235.233 92.8808C235.084 92.9418 234.924 92.9727 234.763 92.9715Z" fill="#444053"/>
<path d="M338.864 95.3313C340.506 95.3313 341.837 94.0009 341.837 92.3598C341.837 90.7186 340.506 89.3882 338.864 89.3882C337.222 89.3882 335.89 90.7186 335.89 92.3598C335.89 94.0009 337.222 95.3313 338.864 95.3313Z" fill="#498DE4"/>
<path d="M290.681 108.066H265.135C264.565 108.066 264.103 108.528 264.103 109.098V125.713C264.103 126.283 264.565 126.745 265.135 126.745H290.681C291.251 126.745 291.713 126.283 291.713 125.713V109.098C291.713 108.528 291.251 108.066 290.681 108.066Z" fill="white"/>
<path d="M334.357 108.066H299.194C299.051 108.066 298.935 108.182 298.935 108.325V110.779C298.935 110.922 299.051 111.038 299.194 111.038H334.357C334.5 111.038 334.616 110.922 334.616 110.779V108.325C334.616 108.182 334.5 108.066 334.357 108.066Z" fill="white"/>
<path d="M334.357 114.434H299.194C299.051 114.434 298.935 114.55 298.935 114.693V117.147C298.935 117.29 299.051 117.405 299.194 117.405H334.357C334.5 117.405 334.616 117.29 334.616 117.147V114.693C334.616 114.55 334.5 114.434 334.357 114.434Z" fill="white"/>
<path d="M334.357 120.802H299.194C299.051 120.802 298.935 120.917 298.935 121.06V123.514C298.935 123.657 299.051 123.773 299.194 123.773H334.357C334.5 123.773 334.616 123.657 334.616 123.514V121.06C334.616 120.917 334.5 120.802 334.357 120.802Z" fill="white"/>
<path d="M290.681 137.357H265.135C264.565 137.357 264.103 137.819 264.103 138.389V155.004C264.103 155.573 264.565 156.035 265.135 156.035H290.681C291.251 156.035 291.713 155.573 291.713 155.004V138.389C291.713 137.819 291.251 137.357 290.681 137.357Z" fill="white"/>
<path d="M334.357 137.357H299.194C299.051 137.357 298.935 137.473 298.935 137.616V140.07C298.935 140.213 299.051 140.329 299.194 140.329H334.357C334.5 140.329 334.616 140.213 334.616 140.07V137.616C334.616 137.473 334.5 137.357 334.357 137.357Z" fill="white"/>
<path d="M334.357 143.725H299.194C299.051 143.725 298.935 143.841 298.935 143.984V146.437C298.935 146.58 299.051 146.696 299.194 146.696H334.357C334.5 146.696 334.616 146.58 334.616 146.437V143.984C334.616 143.841 334.5 143.725 334.357 143.725Z" fill="white"/>
<path d="M334.336 150.092H299.215C299.06 150.092 298.935 150.218 298.935 150.372V152.784C298.935 152.938 299.06 153.064 299.215 153.064H334.336C334.491 153.064 334.616 152.938 334.616 152.784V150.372C334.616 150.218 334.491 150.092 334.336 150.092Z" fill="white"/>
<path d="M290.681 166.648H265.135C264.565 166.648 264.103 167.11 264.103 167.679V184.294C264.103 184.864 264.565 185.326 265.135 185.326H290.681C291.251 185.326 291.713 184.864 291.713 184.294V167.679C291.713 167.11 291.251 166.648 290.681 166.648Z" fill="white"/>
<path d="M334.336 166.648H299.215C299.06 166.648 298.935 166.773 298.935 166.928V169.339C298.935 169.494 299.06 169.619 299.215 169.619H334.336C334.491 169.619 334.616 169.494 334.616 169.339V166.928C334.616 166.773 334.491 166.648 334.336 166.648Z" fill="white"/>
<path d="M334.336 173.015H299.215C299.06 173.015 298.935 173.141 298.935 173.296V175.707C298.935 175.861 299.06 175.987 299.215 175.987H334.336C334.491 175.987 334.616 175.861 334.616 175.707V173.296C334.616 173.141 334.491 173.015 334.336 173.015Z" fill="white"/>
<path d="M334.336 179.383H299.215C299.06 179.383 298.935 179.508 298.935 179.663V182.074C298.935 182.229 299.06 182.354 299.215 182.354H334.336C334.491 182.354 334.616 182.229 334.616 182.074V179.663C334.616 179.508 334.491 179.383 334.336 179.383Z" fill="white"/>
<path d="M290.681 195.939H265.135C264.565 195.939 264.103 196.4 264.103 196.97V213.585C264.103 214.155 264.565 214.617 265.135 214.617H290.681C291.251 214.617 291.713 214.155 291.713 213.585V196.97C291.713 196.4 291.251 195.939 290.681 195.939Z" fill="white"/>
<path d="M334.336 195.939H299.215C299.06 195.939 298.935 196.064 298.935 196.219V198.63C298.935 198.785 299.06 198.91 299.215 198.91H334.336C334.491 198.91 334.616 198.785 334.616 198.63V196.219C334.616 196.064 334.491 195.939 334.336 195.939Z" fill="white"/>
<path d="M334.336 202.306H299.215C299.06 202.306 298.935 202.432 298.935 202.586V204.998C298.935 205.152 299.06 205.278 299.215 205.278H334.336C334.491 205.278 334.616 205.152 334.616 204.998V202.586C334.616 202.432 334.491 202.306 334.336 202.306Z" fill="white"/>
<path d="M334.336 208.674H299.215C299.06 208.674 298.935 208.799 298.935 208.954V211.365C298.935 211.52 299.06 211.645 299.215 211.645H334.336C334.491 211.645 334.616 211.52 334.616 211.365V208.954C334.616 208.799 334.491 208.674 334.336 208.674Z" fill="white"/>
<path d="M290.681 225.229H265.135C264.565 225.229 264.103 225.691 264.103 226.261V242.876C264.103 243.446 264.565 243.907 265.135 243.907H290.681C291.251 243.907 291.713 243.446 291.713 242.876V226.261C291.713 225.691 291.251 225.229 290.681 225.229Z" fill="white"/>
<path d="M334.336 225.229H299.215C299.06 225.229 298.935 225.355 298.935 225.509V227.921C298.935 228.075 299.06 228.201 299.215 228.201H334.336C334.491 228.201 334.616 228.075 334.616 227.921V225.509C334.616 225.355 334.491 225.229 334.336 225.229Z" fill="white"/>
<path d="M334.336 231.597H299.215C299.06 231.597 298.935 231.722 298.935 231.877V234.288C298.935 234.443 299.06 234.568 299.215 234.568H334.336C334.491 234.568 334.616 234.443 334.616 234.288V231.877C334.616 231.722 334.491 231.597 334.336 231.597Z" fill="white"/>
<path d="M334.336 237.964H299.215C299.06 237.964 298.935 238.09 298.935 238.245V240.656C298.935 240.811 299.06 240.936 299.215 240.936H334.336C334.491 240.936 334.616 240.811 334.616 240.656V238.245C334.616 238.09 334.491 237.964 334.336 237.964Z" fill="white"/>
<path opacity="0.1" d="M127.643 148.654H83.9626V150.916H127.643V148.654Z" fill="#498DE4"/>
<path opacity="0.1" d="M92.0504 136.691H87.8451V148.653H92.0504V136.691Z" fill="#498DE4"/>
<path opacity="0.1" d="M98.1969 136.691H93.9916V148.653H98.1969V136.691Z" fill="#498DE4"/>
<path opacity="0.1" d="M104.343 136.691H100.138V148.653H104.343V136.691Z" fill="#498DE4"/>
<path opacity="0.1" d="M110.49 136.691H106.285V148.653H110.49V136.691Z" fill="#498DE4"/>
<path opacity="0.1" d="M116.637 136.691H112.431V148.653H116.637V136.691Z" fill="#498DE4"/>
<path opacity="0.1" d="M122.787 136.691H118.582V148.653H122.787V136.691Z" fill="#498DE4"/>
<path opacity="0.1" d="M92.0504 138.953H87.8451V140.248H92.0504V138.953Z" fill="#498DE4"/>
<path opacity="0.1" d="M98.1969 138.953H93.9916V140.248H98.1969V138.953Z" fill="#498DE4"/>
<path opacity="0.1" d="M104.343 138.953H100.138V140.248H104.343V138.953Z" fill="#498DE4"/>
<path opacity="0.1" d="M110.49 138.953H106.285V140.248H110.49V138.953Z" fill="#498DE4"/>
<path opacity="0.1" d="M116.637 138.953H112.431V140.248H116.637V138.953Z" fill="#498DE4"/>
<path opacity="0.1" d="M122.787 138.953H118.582V140.248H122.787V138.953Z" fill="#498DE4"/>
<path opacity="0.1" d="M92.0504 144.774H87.8451V146.069H92.0504V144.774Z" fill="#498DE4"/>
<path opacity="0.1" d="M98.1969 144.774H93.9916V146.069H98.1969V144.774Z" fill="#498DE4"/>
<path opacity="0.1" d="M104.343 144.774H100.138V146.069H104.343V144.774Z" fill="#498DE4"/>
<path opacity="0.1" d="M110.49 144.774H106.285V146.069H110.49V144.774Z" fill="#498DE4"/>
<path opacity="0.1" d="M116.637 144.774H112.431V146.069H116.637V144.774Z" fill="#498DE4"/>
<path opacity="0.1" d="M122.787 144.774H118.582V146.069H122.787V144.774Z" fill="#498DE4"/>
<path opacity="0.1" d="M223.409 154.473H179.729V156.735H223.409V154.473Z" fill="#498DE4"/>
<path opacity="0.1" d="M187.817 142.511H183.611V154.474H187.817V142.511Z" fill="#498DE4"/>
<path opacity="0.1" d="M193.963 142.511H189.758V154.474H193.963V142.511Z" fill="#498DE4"/>
<path opacity="0.1" d="M200.11 142.511H195.905V154.474H200.11V142.511Z" fill="#498DE4"/>
<path opacity="0.1" d="M206.261 142.511H202.055V154.474H206.261V142.511Z" fill="#498DE4"/>
<path opacity="0.1" d="M212.407 142.511H208.202V154.474H212.407V142.511Z" fill="#498DE4"/>
<path opacity="0.1" d="M218.554 142.511H214.348V154.474H218.554V142.511Z" fill="#498DE4"/>
<path opacity="0.1" d="M187.817 144.774H183.611V146.069H187.817V144.774Z" fill="#498DE4"/>
<path opacity="0.1" d="M193.963 144.774H189.758V146.069H193.963V144.774Z" fill="#498DE4"/>
<path opacity="0.1" d="M200.11 144.774H195.905V146.069H200.11V144.774Z" fill="#498DE4"/>
<path opacity="0.1" d="M206.261 144.774H202.055V146.069H206.261V144.774Z" fill="#498DE4"/>
<path opacity="0.1" d="M212.407 144.774H208.202V146.069H212.407V144.774Z" fill="#498DE4"/>
<path opacity="0.1" d="M218.554 144.774H214.348V146.069H218.554V144.774Z" fill="#498DE4"/>
<path opacity="0.1" d="M187.817 150.593H183.611V151.888H187.817V150.593Z" fill="#498DE4"/>
<path opacity="0.1" d="M193.963 150.593H189.758V151.888H193.963V150.593Z" fill="#498DE4"/>
<path opacity="0.1" d="M200.11 150.593H195.905V151.888H200.11V150.593Z" fill="#498DE4"/>
<path opacity="0.1" d="M206.261 150.593H202.055V151.888H206.261V150.593Z" fill="#498DE4"/>
<path opacity="0.1" d="M212.407 150.593H208.202V151.888H212.407V150.593Z" fill="#498DE4"/>
<path opacity="0.1" d="M218.554 150.593H214.348V151.888H218.554V150.593Z" fill="#498DE4"/>
<path opacity="0.1" d="M223.409 170.961H179.729V173.223H223.409V170.961Z" fill="#498DE4"/>
<path opacity="0.1" d="M187.817 158.999H183.611V170.962H187.817V158.999Z" fill="#498DE4"/>
<path opacity="0.1" d="M193.963 158.999H189.758V170.962H193.963V158.999Z" fill="#498DE4"/>
<path opacity="0.1" d="M200.11 158.999H195.905V170.962H200.11V158.999Z" fill="#498DE4"/>
<path opacity="0.1" d="M206.261 158.999H202.055V170.962H206.261V158.999Z" fill="#498DE4"/>
<path opacity="0.1" d="M212.407 158.999H208.202V170.962H212.407V158.999Z" fill="#498DE4"/>
<path opacity="0.1" d="M218.554 158.999H214.348V170.962H218.554V158.999Z" fill="#498DE4"/>
<path opacity="0.1" d="M187.817 161.262H183.611V162.556H187.817V161.262Z" fill="#498DE4"/>
<path opacity="0.1" d="M193.963 161.262H189.758V162.556H193.963V161.262Z" fill="#498DE4"/>
<path opacity="0.1" d="M200.11 161.262H195.905V162.556H200.11V161.262Z" fill="#498DE4"/>
<path opacity="0.1" d="M206.261 161.262H202.055V162.556H206.261V161.262Z" fill="#498DE4"/>
<path opacity="0.1" d="M212.407 161.262H208.202V162.556H212.407V161.262Z" fill="#498DE4"/>
<path opacity="0.1" d="M218.554 161.262H214.348V162.556H218.554V161.262Z" fill="#498DE4"/>
<path opacity="0.1" d="M187.817 167.081H183.611V168.376H187.817V167.081Z" fill="#498DE4"/>
<path opacity="0.1" d="M193.963 167.081H189.758V168.376H193.963V167.081Z" fill="#498DE4"/>
<path opacity="0.1" d="M200.11 167.081H195.905V168.376H200.11V167.081Z" fill="#498DE4"/>
<path opacity="0.1" d="M206.261 167.081H202.055V168.376H206.261V167.081Z" fill="#498DE4"/>
<path opacity="0.1" d="M212.407 167.081H208.202V168.376H212.407V167.081Z" fill="#498DE4"/>
<path opacity="0.1" d="M218.554 167.081H214.348V168.376H218.554V167.081Z" fill="#498DE4"/>
<path opacity="0.1" d="M110.758 174.238C110.432 173.821 110.134 173.383 109.866 172.926L116.157 171.895L109.36 171.946C108.708 170.527 108.352 168.991 108.314 167.431C108.276 165.87 108.557 164.318 109.139 162.87L118.251 167.59L109.836 161.41C110.619 160.037 111.677 158.841 112.944 157.897C114.212 156.952 115.661 156.28 117.201 155.922C118.741 155.564 120.338 155.528 121.892 155.816C123.447 156.104 124.925 156.71 126.234 157.597C127.542 158.483 128.654 159.63 129.498 160.966C130.342 162.302 130.9 163.798 131.138 165.36C131.376 166.921 131.289 168.516 130.881 170.042C130.473 171.569 129.754 172.994 128.768 174.23C129.28 174.875 129.719 175.576 130.077 176.318L121.912 180.563L130.616 177.647C131.225 179.45 131.375 181.377 131.052 183.253C130.73 185.128 129.945 186.894 128.768 188.391C130.102 190.081 130.932 192.112 131.165 194.252C131.397 196.391 131.022 198.553 130.083 200.49C129.143 202.426 127.677 204.059 125.852 205.202C124.027 206.344 121.917 206.95 119.763 206.95C117.609 206.95 115.499 206.344 113.674 205.202C111.849 204.059 110.383 202.426 109.443 200.49C108.503 198.553 108.128 196.391 108.361 194.252C108.593 192.112 109.424 190.081 110.758 188.391C109.169 186.371 108.306 183.877 108.306 181.308C108.306 178.739 109.169 176.245 110.758 174.225V174.238Z" fill="#498DE4"/>
<path opacity="0.1" d="M131.223 181.319C131.224 183.885 130.359 186.376 128.768 188.391C130.102 190.081 130.932 192.112 131.165 194.251C131.397 196.391 131.022 198.553 130.083 200.489C129.143 202.426 127.677 204.059 125.852 205.202C124.027 206.344 121.917 206.95 119.763 206.95C117.609 206.95 115.499 206.344 113.674 205.202C111.849 204.059 110.383 202.426 109.443 200.489C108.503 198.553 108.128 196.391 108.361 194.251C108.593 192.112 109.424 190.081 110.758 188.391C109.216 186.451 131.223 180.032 131.223 181.319Z" fill="#498DE4"/>
<path opacity="0.2" d="M121.598 209.99C121.618 210.02 121.636 210.051 121.653 210.083H117.762C117.783 210.053 117.796 210.019 117.817 209.99C117.483 209.407 117.309 208.746 117.316 208.075C117.314 207.615 117.393 207.158 117.55 206.725C117.766 206.759 118.034 206.797 118.344 206.831C119.247 206.921 120.156 206.921 121.058 206.831C121.319 206.806 121.587 206.772 121.861 206.729C121.859 206.736 121.859 206.744 121.861 206.751C122.016 207.176 122.094 207.626 122.091 208.079C122.099 208.748 121.929 209.408 121.598 209.99Z" fill="#3F3D56"/>
<path opacity="0.1" d="M107.614 210.083H85.9505C85.9038 209.96 85.8613 209.828 85.8231 209.701C85.0598 207.248 85.1482 204.609 86.0737 202.213C83.9588 200.752 82.3966 198.623 81.6378 196.168C80.879 193.713 80.9677 191.074 81.8896 188.675C81.4543 188.376 81.0412 188.045 80.6535 187.686L86.354 184.846L79.8719 186.901C78.8296 185.739 78.0358 184.376 77.5391 182.896C77.0424 181.417 76.8533 179.851 76.9834 178.296L87.0974 180.122L77.234 176.696C77.5743 175.151 78.2308 173.694 79.1622 172.415C80.0936 171.136 81.2797 170.064 82.646 169.265C84.0123 168.467 85.5291 167.96 87.1011 167.776C88.673 167.592 90.266 167.735 91.7799 168.197C93.2938 168.658 94.6957 169.427 95.8975 170.457C97.0994 171.486 98.075 172.752 98.7631 174.177C99.4513 175.601 99.837 177.152 99.896 178.733C99.9549 180.313 99.686 181.889 99.1059 183.361C99.79 183.836 100.421 184.384 100.988 184.995L94.4376 191.452L101.892 186.094C103.01 187.639 103.724 189.438 103.97 191.328C104.216 193.218 103.987 195.14 103.303 196.919C105.36 198.343 106.895 200.4 107.673 202.777C108.452 205.153 108.431 207.719 107.614 210.083Z" fill="#498DE4"/>
<path opacity="0.1" d="M107.614 210.084H85.9505C85.9038 209.961 85.8613 209.829 85.8231 209.702C85.0599 207.249 85.1482 204.61 86.0737 202.213C84.0348 200.804 103.163 188.175 103.541 189.406C104.304 191.861 104.216 194.501 103.29 196.899C105.354 198.322 106.894 200.382 107.675 202.763C108.456 205.144 108.435 207.716 107.614 210.084Z" fill="#498DE4"/>
<path opacity="0.1" d="M205.632 194.573C204.316 196.779 202.294 198.478 199.893 199.395C199.996 200.212 200.012 201.037 199.94 201.857L190.76 201.305L199.728 203.249C199.464 204.471 199.002 205.641 198.36 206.713C197.578 208.027 196.538 209.168 195.301 210.067H182.804V210.394H170.061C170.086 210.283 170.112 210.177 170.142 210.067C170.607 208.311 171.483 206.69 172.698 205.339C173.913 203.987 175.432 202.944 177.129 202.294C176.803 199.746 177.343 197.162 178.663 194.957C179.982 192.753 182.005 191.055 184.406 190.137C184.339 189.611 184.307 189.082 184.312 188.553L190.238 190.892L184.376 187.449C184.549 185.898 185.037 184.398 185.81 183.042C186.584 181.685 187.627 180.501 188.874 179.562L194.273 188.298L190.225 178.679C192.43 177.46 194.976 177 197.469 177.371C199.961 177.743 202.262 178.924 204.016 180.733C205.769 182.542 206.878 184.878 207.17 187.379C207.462 189.881 206.921 192.409 205.632 194.573Z" fill="#498DE4"/>
<path opacity="0.1" d="M198.36 206.729C197.578 208.043 196.538 209.184 195.301 210.083H182.804V210.41H170.061C170.086 210.3 170.112 210.193 170.142 210.083C170.607 208.327 171.483 206.706 172.698 205.355C173.913 204.003 175.432 202.96 177.129 202.31C177.023 201.461 179.491 201.589 182.783 202.141C189.235 203.223 198.797 205.999 198.36 206.729Z" fill="#498DE4"/>
<path d="M144.192 176.162C144.192 176.162 145.764 184.652 142.255 187.424C138.746 190.196 145.228 206.811 155.924 204.871C166.62 202.931 170.979 188.994 170.979 188.994C170.979 188.994 160.266 186.779 164.237 175.516L144.192 176.162Z" fill="#EE8E9E"/>
<path opacity="0.1" d="M144.192 176.162C144.192 176.162 145.764 184.652 142.255 187.424C138.746 190.196 145.228 206.811 155.924 204.871C166.62 202.931 170.979 188.994 170.979 188.994C170.979 188.994 160.266 186.779 164.237 175.516L144.192 176.162Z" fill="black"/>
<path d="M153.66 182.393C163.455 182.393 171.395 174.458 171.395 164.67C171.395 154.882 163.455 146.947 153.66 146.947C143.866 146.947 135.926 154.882 135.926 164.67C135.926 174.458 143.866 182.393 153.66 182.393Z" fill="#EE8E9E"/>
<path d="M182.804 198.362V210.41H124.244V198.91C124.244 197.452 124.674 196.026 125.48 194.81C126.286 193.595 127.433 192.644 128.777 192.076L130.455 191.362C134.702 189.554 139.863 187.308 141.55 186.375C141.735 186.282 141.908 186.17 142.068 186.039C142.99 185.118 142.807 186.315 142.807 186.315C142.807 186.315 142.782 186.544 142.765 186.939C142.663 189.652 143.054 200.311 155.555 199.424C167.75 198.575 168.298 190.331 168.175 187.907C168.168 187.683 168.15 187.459 168.12 187.236C168.963 187.437 169.789 187.707 170.588 188.043C173.136 188.985 176.9 190.496 177.907 191.21C178.221 191.43 178.603 191.66 179.02 191.893C179.492 192.156 179.933 192.471 180.336 192.831C181.113 193.528 181.734 194.381 182.16 195.334C182.585 196.287 182.804 197.319 182.804 198.362Z" fill="#498DE4"/>
<path opacity="0.1" d="M170.588 188.043C169.555 192.823 166.314 201.776 154.633 202.009C142.187 202.255 141.465 189.885 141.546 186.375C141.733 186.285 141.908 186.172 142.068 186.039C142.994 185.118 142.807 186.315 142.807 186.315C142.807 186.315 141.24 200.438 155.551 199.424C169.861 198.409 168.103 187.241 168.103 187.241C168.103 187.173 169.169 187.542 170.588 188.043Z" fill="black"/>
<path d="M132.668 165.557C133.257 165.41 133.876 165.443 134.446 165.651C135.016 165.859 135.511 166.233 135.866 166.725C136.512 167.629 136.61 168.72 136.69 169.764C137.459 169.926 137.892 169.055 137.965 168.397C138.249 165.719 138.271 162.989 139.171 160.4C140.072 157.81 142.038 155.306 145.058 154.317C146.09 153.959 147.193 153.854 148.274 154.011C148.915 154.117 149.519 154.342 150.156 154.435C152.365 154.801 154.765 153.756 156.833 154.482C158.133 154.941 158.957 155.998 159.565 157.055C159.829 157.625 160.188 158.146 160.627 158.596C161.506 159.385 162.882 159.589 164.144 159.835C165.405 160.081 166.782 160.51 167.321 161.482C167.805 162.361 167.449 163.375 167.287 164.326C167.038 165.833 167.29 167.379 168.005 168.728C168.239 169.153 168.714 169.667 169.279 169.527C169.532 169.441 169.746 169.268 169.883 169.038C171.331 167.009 171.293 164.369 173.111 162.539C173.718 161.928 174.504 161.452 175.095 160.841C175.541 160.388 175.869 159.832 176.049 159.221C176.228 158.611 176.253 157.966 176.123 157.343C175.795 155.942 174.674 154.796 173.769 153.565C172.594 152.006 171.738 150.23 171.25 148.34C171.165 148.12 171.165 147.876 171.25 147.656C171.422 147.433 171.643 147.253 171.896 147.13C172.388 146.8 172.744 146.302 172.895 145.729C173.047 145.157 172.985 144.548 172.72 144.018C172.206 142.97 171.076 142.172 169.802 141.696C168.509 141.272 167.175 140.987 165.822 140.847C164.93 140.974 163.885 140.469 163.609 139.756C163.485 139.438 163.485 139.094 163.362 138.776C163.195 138.456 162.953 138.181 162.658 137.974C162.362 137.767 162.021 137.634 161.663 137.587C160.903 137.464 160.125 137.519 159.391 137.748C158.541 137.986 157.577 138.343 156.842 137.927C156.455 137.71 156.243 137.315 155.827 137.137C154.977 136.78 154.102 137.502 153.495 138.096C152.909 138.72 152.19 139.203 151.392 139.51C150.97 139.67 150.519 139.738 150.069 139.708C149.619 139.678 149.18 139.551 148.784 139.336C148.202 138.967 147.909 138.372 147.446 137.901C146.571 137.122 145.452 136.671 144.281 136.628C143.077 136.564 141.871 136.696 140.709 137.018C138.491 137.558 136.374 138.446 134.435 139.65C133.459 140.186 132.632 140.954 132.026 141.887C131.668 142.602 131.483 143.392 131.487 144.192C131.393 146.701 132.226 149.341 134.397 151.099C133.071 151.651 132.625 153.005 132.315 154.206C131.818 156.125 131.321 158.073 131.508 160.026C131.602 161.036 131.878 162.047 131.729 163.053C131.61 163.527 131.544 164.012 131.534 164.5C131.596 164.769 131.737 165.014 131.939 165.202C132.141 165.39 132.395 165.514 132.668 165.557Z" fill="#454B69"/>
<g opacity="0.1">
<path opacity="0.1" d="M175.846 156.554C175.656 156.97 175.397 157.352 175.082 157.683C174.491 158.303 173.706 158.783 173.098 159.381C171.28 161.198 171.318 163.855 169.87 165.885C169.735 166.114 169.52 166.286 169.267 166.368C168.714 166.513 168.239 166.012 167.992 165.57C167.712 165.033 167.499 164.462 167.359 163.872C167.33 164.021 167.3 164.17 167.274 164.297C167.025 165.803 167.277 167.35 167.992 168.699C168.226 169.123 168.702 169.637 169.267 169.497C169.52 169.412 169.734 169.238 169.87 169.009C171.318 166.98 171.28 164.339 173.098 162.51C173.706 161.898 174.491 161.423 175.082 160.812C175.529 160.359 175.856 159.802 176.036 159.192C176.215 158.582 176.241 157.936 176.11 157.314C176.045 157.053 175.956 156.799 175.846 156.554Z" fill="black"/>
<path opacity="0.1" d="M171.888 143.988C171.634 144.11 171.412 144.291 171.242 144.515C171.157 144.733 171.157 144.975 171.242 145.194C171.409 145.853 171.624 146.5 171.883 147.13C172.376 146.8 172.731 146.302 172.883 145.729C173.034 145.156 172.972 144.548 172.707 144.018C172.625 143.843 172.525 143.677 172.41 143.521C172.259 143.701 172.083 143.858 171.888 143.988Z" fill="black"/>
<path opacity="0.1" d="M134.422 147.924C132.917 146.684 131.926 144.931 131.64 143.004C131.564 143.384 131.521 143.77 131.513 144.158C131.415 146.012 131.904 147.849 132.91 149.409C133.214 148.745 133.753 148.216 134.422 147.924Z" fill="black"/>
<path opacity="0.1" d="M167.287 161.198C167.449 160.242 167.805 159.228 167.321 158.353C166.782 157.377 165.405 156.953 164.144 156.706C162.882 156.46 161.506 156.252 160.627 155.467C160.188 155.017 159.829 154.496 159.565 153.926C158.966 152.869 158.133 151.803 156.833 151.353C154.765 150.627 152.365 151.667 150.156 151.307C149.519 151.201 148.916 150.98 148.274 150.882C147.193 150.724 146.09 150.829 145.059 151.188C142.038 152.181 140.072 154.686 139.171 157.271C138.271 159.856 138.249 162.586 137.965 165.269C137.892 165.922 137.459 166.797 136.69 166.635C136.61 165.587 136.512 164.513 135.866 163.592C135.51 163.101 135.015 162.728 134.445 162.52C133.875 162.313 133.256 162.281 132.668 162.429C132.311 162.349 131.993 162.146 131.771 161.856C131.818 162.245 131.818 162.638 131.771 163.027C131.652 163.501 131.587 163.986 131.576 164.475C131.631 164.746 131.766 164.996 131.963 165.19C132.161 165.384 132.412 165.515 132.685 165.566C133.274 165.419 133.893 165.451 134.463 165.659C135.033 165.867 135.528 166.241 135.883 166.733C136.529 167.637 136.627 168.728 136.707 169.773C137.476 169.934 137.909 169.064 137.982 168.406C138.266 165.727 138.288 162.997 139.188 160.408C140.089 157.819 142.055 155.314 145.076 154.325C146.108 153.968 147.21 153.863 148.291 154.019C148.932 154.125 149.536 154.35 150.173 154.444C152.382 154.809 154.782 153.765 156.85 154.49C158.15 154.949 158.974 156.006 159.582 157.063C159.846 157.633 160.205 158.154 160.644 158.604C161.523 159.393 162.899 159.597 164.161 159.843C165.422 160.09 166.709 160.489 167.274 161.389C167.253 161.325 167.274 161.261 167.287 161.198Z" fill="black"/>
<path opacity="0.1" d="M131.754 159.878C131.824 159.087 131.777 158.29 131.614 157.513C131.49 158.334 131.463 159.166 131.534 159.993C131.534 160.205 131.58 160.417 131.61 160.625C131.657 160.375 131.72 160.128 131.754 159.878Z" fill="black"/>
</g>
<path d="M110.966 227.538V219.876C110.966 219.819 110.989 219.764 111.029 219.723C111.07 219.682 111.125 219.66 111.182 219.66H112.053C112.111 219.66 112.166 219.682 112.206 219.723C112.247 219.764 112.27 219.819 112.27 219.876V223.064L115.804 219.791C115.887 219.722 115.988 219.677 116.095 219.663C116.202 219.648 116.312 219.664 116.41 219.708C116.509 219.752 116.593 219.823 116.654 219.913C116.714 220.003 116.748 220.108 116.751 220.216V227.156C116.748 227.264 116.714 227.369 116.654 227.459C116.593 227.549 116.509 227.62 116.41 227.664C116.312 227.708 116.202 227.724 116.095 227.709C115.988 227.695 115.887 227.65 115.804 227.581L112.27 224.329V227.5C112.27 227.558 112.247 227.613 112.206 227.653C112.166 227.694 112.111 227.717 112.053 227.717H111.182C111.131 227.717 111.081 227.7 111.041 227.667C111.002 227.635 110.975 227.589 110.966 227.538Z" fill="#444053"/>
<path d="M196.359 219.877V227.539C196.359 227.568 196.353 227.596 196.342 227.623C196.331 227.65 196.315 227.674 196.294 227.694C196.273 227.714 196.249 227.73 196.222 227.74C196.196 227.751 196.167 227.756 196.138 227.756H195.289C195.231 227.756 195.176 227.733 195.135 227.692C195.095 227.652 195.072 227.597 195.072 227.539V224.351L191.538 227.62C191.454 227.689 191.353 227.733 191.246 227.747C191.139 227.762 191.029 227.746 190.93 227.702C190.832 227.658 190.747 227.587 190.686 227.498C190.625 227.408 190.591 227.303 190.586 227.195V220.229C190.591 220.121 190.625 220.016 190.686 219.927C190.747 219.837 190.832 219.767 190.93 219.723C191.029 219.678 191.139 219.663 191.246 219.677C191.353 219.692 191.454 219.736 191.538 219.805L195.072 223.056V219.89C195.072 219.832 195.095 219.777 195.135 219.737C195.176 219.696 195.231 219.673 195.289 219.673H196.138C196.194 219.672 196.248 219.693 196.29 219.731C196.331 219.769 196.356 219.821 196.359 219.877Z" fill="#444053"/>
<path d="M152.22 227.87H150.491C150.266 227.87 150.05 227.781 149.891 227.621C149.731 227.462 149.642 227.246 149.642 227.021V220.679C149.642 220.454 149.731 220.238 149.891 220.079C150.05 219.919 150.266 219.83 150.491 219.83H152.22C152.446 219.83 152.662 219.919 152.821 220.079C152.98 220.238 153.07 220.454 153.07 220.679V227.021C153.07 227.246 152.98 227.462 152.821 227.621C152.662 227.781 152.446 227.87 152.22 227.87ZM157.7 227.021V220.679C157.7 220.454 157.61 220.238 157.451 220.079C157.292 219.919 157.076 219.83 156.85 219.83H155.104C154.879 219.83 154.663 219.919 154.504 220.079C154.344 220.238 154.255 220.454 154.255 220.679V227.021C154.255 227.246 154.344 227.462 154.504 227.621C154.663 227.781 154.879 227.87 155.104 227.87H156.833C156.946 227.872 157.059 227.852 157.164 227.81C157.269 227.769 157.364 227.707 157.445 227.628C157.526 227.548 157.59 227.454 157.634 227.35C157.677 227.246 157.7 227.134 157.7 227.021Z" fill="#444053"/>
<path opacity="0.6" d="M204.634 209.549H102.687V210.682H204.634V209.549Z" fill="#444053"/>
<path d="M134.167 212.801C135.652 212.801 136.856 211.598 136.856 210.114C136.856 208.63 135.652 207.426 134.167 207.426C132.682 207.426 131.478 208.63 131.478 210.114C131.478 211.598 132.682 212.801 134.167 212.801Z" fill="#444053"/>
<path d="M134.167 209.549H102.687V210.682H134.167V209.549Z" fill="#444053"/>
<path d="M360.986 337.477C374.938 337.477 386.248 335.303 386.248 332.621C386.248 329.939 374.938 327.764 360.986 327.764C347.035 327.764 335.725 329.939 335.725 332.621C335.725 335.303 347.035 337.477 360.986 337.477Z" fill="#498DE4"/>
<path d="M360.566 334.404C362.189 334.404 363.505 332.682 363.505 330.558C363.505 328.434 362.189 326.712 360.566 326.712C358.942 326.712 357.626 328.434 357.626 330.558C357.626 332.682 358.942 334.404 360.566 334.404Z" fill="#3F3D56"/>
<path d="M360.566 329.7C362.189 329.7 363.505 327.978 363.505 325.854C363.505 323.73 362.189 322.008 360.566 322.008C358.942 322.008 357.626 323.73 357.626 325.854C357.626 327.978 358.942 329.7 360.566 329.7Z" fill="#3F3D56"/>
<path d="M360.566 325C362.189 325 363.505 323.278 363.505 321.154C363.505 319.03 362.189 317.308 360.566 317.308C358.942 317.308 357.626 319.03 357.626 321.154C357.626 323.278 358.942 325 360.566 325Z" fill="#3F3D56"/>
<path d="M360.566 320.297C362.189 320.297 363.505 318.575 363.505 316.451C363.505 314.327 362.189 312.605 360.566 312.605C358.942 312.605 357.626 314.327 357.626 316.451C357.626 318.575 358.942 320.297 360.566 320.297Z" fill="#3F3D56"/>
<path d="M360.566 315.593C362.189 315.593 363.505 313.871 363.505 311.747C363.505 309.623 362.189 307.901 360.566 307.901C358.942 307.901 357.626 309.623 357.626 311.747C357.626 313.871 358.942 315.593 360.566 315.593Z" fill="#3F3D56"/>
<path d="M360.566 310.89C362.189 310.89 363.505 309.168 363.505 307.044C363.505 304.92 362.189 303.198 360.566 303.198C358.942 303.198 357.626 304.92 357.626 307.044C357.626 309.168 358.942 310.89 360.566 310.89Z" fill="#3F3D56"/>
<path d="M360.566 306.186C362.189 306.186 363.505 304.465 363.505 302.34C363.505 300.216 362.189 298.494 360.566 298.494C358.942 298.494 357.626 300.216 357.626 302.34C357.626 304.465 358.942 306.186 360.566 306.186Z" fill="#3F3D56"/>
<path d="M371.572 270.164C371.973 269.651 372.339 269.112 372.668 268.551L364.937 267.277L373.296 267.341C374.097 265.597 374.533 263.708 374.579 261.79C374.625 259.872 374.28 257.965 373.564 256.185L362.358 262.001L372.697 254.406C371.729 252.733 370.426 251.276 368.869 250.128C367.313 248.98 365.536 248.164 363.65 247.732C361.764 247.299 359.81 247.26 357.908 247.616C356.006 247.972 354.198 248.715 352.597 249.799C350.995 250.884 349.634 252.287 348.599 253.92C347.563 255.553 346.875 257.382 346.578 259.293C346.281 261.203 346.38 263.154 346.871 265.025C347.361 266.895 348.232 268.644 349.428 270.164C348.805 270.954 348.267 271.808 347.822 272.711L357.856 277.919L347.16 274.332C346.409 276.551 346.223 278.921 346.619 281.229C347.015 283.537 347.98 285.71 349.428 287.551C347.795 289.628 346.779 292.122 346.497 294.748C346.215 297.374 346.678 300.027 347.833 302.403C348.988 304.778 350.789 306.781 353.029 308.183C355.269 309.584 357.859 310.327 360.502 310.327C363.145 310.327 365.735 309.584 367.975 308.183C370.215 306.781 372.016 304.778 373.171 302.403C374.326 300.027 374.789 297.374 374.507 294.748C374.225 292.122 373.209 289.628 371.576 287.551C373.527 285.07 374.588 282.005 374.588 278.849C374.588 275.693 373.527 272.628 371.576 270.147L371.572 270.164Z" fill="#498DE4"/>
<path opacity="0.1" d="M346.416 278.866C346.41 282.023 347.472 285.089 349.428 287.568C347.795 289.645 346.779 292.139 346.497 294.765C346.215 297.391 346.678 300.044 347.833 302.419C348.988 304.795 350.789 306.798 353.029 308.199C355.269 309.601 357.859 310.344 360.502 310.344C363.145 310.344 365.735 309.601 367.975 308.199C370.215 306.798 372.016 304.795 373.171 302.419C374.326 300.044 374.789 297.391 374.507 294.765C374.225 292.139 373.209 289.645 371.576 287.568C373.462 285.178 346.416 277.287 346.416 278.866Z" fill="black"/>
<path opacity="0.1" d="M77.6249 363.617C100.85 363.617 119.678 359.626 119.678 354.703C119.678 349.779 100.85 345.788 77.6249 345.788C54.3996 345.788 35.5718 349.779 35.5718 354.703C35.5718 359.626 54.3996 363.617 77.6249 363.617Z" fill="#498DE4"/>
<path d="M91.7063 353.667C90.8567 353.357 89.9477 353.408 89.0599 353.31C87.2165 353.098 85.5002 352.265 84.1919 350.95C83.3506 350.1 82.689 349.09 82.2465 347.979C82.5268 348.081 82.8072 348.187 83.096 348.301C82.2465 346.319 83.1385 344.094 83.9201 342.091C85.2454 338.695 86.4985 335.28 87.6794 331.848C90.6528 323.149 93.2015 314.103 93.1463 304.849C93.1463 301.504 92.5303 298.341 92.4114 295.001C92.3222 292.522 92.7045 290.047 92.6875 287.563C92.6875 287.215 92.6875 286.871 92.662 286.523C93.4219 285.859 94.0189 285.028 94.407 284.097C94.7951 283.165 94.964 282.156 94.9006 281.149C94.8574 280.624 94.7823 280.103 94.6755 279.587C94.5251 278.691 94.3265 277.804 94.0808 276.93C93.8004 276.008 93.4181 275.125 93.0911 274.225C92.4581 272.481 92.0291 270.664 91.4896 268.889C91.6895 268.91 91.8846 268.963 92.0673 269.047C91.9313 268.887 91.8378 268.696 91.7955 268.49C91.4783 267.361 91.307 266.195 91.2857 265.022L91.6468 264.861C91.8094 263.716 91.7503 262.55 91.4726 261.427C91.6765 259.606 91.9951 257.772 92.1905 255.959C92.2627 255.28 92.233 254.427 91.6086 254.261C91.4811 253.289 91.4302 252.304 91.3792 251.323C91.2008 247.902 91.0238 244.482 90.8482 241.063C90.6698 237.629 90.4914 234.199 90.4234 230.761C90.3767 228.579 90.3512 226.32 89.833 224.232C89.9226 223.231 89.8202 222.222 89.5314 221.26C88.7413 218.76 86.2861 216.777 83.7969 216.918C83.0545 215.856 82.1366 214.929 81.0826 214.175C81.5796 213.063 82.1742 211.917 82.6627 211.017C86.6472 209.722 89.5611 205.796 89.5611 201.126C89.567 199.417 89.1667 197.73 88.393 196.206C88.4661 196.019 88.5285 195.827 88.5799 195.633C88.7932 194.716 88.7266 193.756 88.3888 192.878C88.2692 192.541 88.1273 192.212 87.964 191.893C87.8535 191.681 87.7346 191.469 87.6114 191.265L87.3948 190.938C87.2631 190.738 87.1272 190.547 86.97 190.361C86.6683 189.956 86.345 189.567 86.0015 189.197C85.5785 188.74 85.1119 188.325 84.6082 187.958C83.9252 187.451 83.144 187.091 82.3144 186.901C81.8347 186.806 81.3464 186.762 80.8574 186.769C80.5643 186.769 80.267 186.769 79.9739 186.795C79.3792 186.829 78.7888 186.871 78.1983 186.867C78.0029 186.867 77.8033 186.867 77.6079 186.837C76.5685 186.699 75.5406 186.485 74.5325 186.196L74.0227 186.09C73.8486 186.056 73.6787 186.026 73.5045 186.005C73.0385 185.943 72.5686 185.915 72.0985 185.92H71.627C71.1561 185.943 70.6867 185.991 70.221 186.065L69.7537 186.137C68.5738 186.321 67.4238 186.663 66.3343 187.151C66.1941 187.215 66.0497 187.287 65.9095 187.364L65.8245 187.41C65.7098 187.47 65.5951 187.533 65.4847 187.601L65.421 187.64L65.0599 187.869L65.0302 187.89C61.6574 190.157 59.6652 194.453 59.1597 198.715C58.5948 203.499 59.5845 208.321 60.5742 213.029L61.4663 217.274C61.5045 217.465 61.547 217.652 61.5852 217.843C60.3309 218.871 59.3662 220.209 58.7859 221.723C57.9364 223.845 57.9151 226.142 57.9831 228.443C57.9831 228.91 58.0086 229.377 58.0553 229.844C57.9491 230.727 57.8557 231.614 57.7962 232.505C57.5286 236.623 58.0298 240.762 57.8981 244.888C57.7962 248.068 57.3162 251.256 57.5498 254.414C57.7537 257.216 58.5056 259.932 59.2489 262.637L60.3194 266.491C60.3541 266.69 60.4472 266.875 60.587 267.022C60.7628 267.14 60.9779 267.184 61.1859 267.145C60.4896 268.725 59.9076 270.354 59.4443 272.018C59.1243 273.037 58.9135 274.087 58.8157 275.151C58.6755 277.095 59.1258 279.027 59.576 280.916C60.2557 283.746 60.9325 286.587 61.6065 289.44C62.0822 291.435 62.5566 293.429 63.0295 295.421C63.964 299.352 64.9027 303.308 65.0769 307.354C65.174 309.385 65.0314 311.421 64.6521 313.42C63.4266 319.404 63.2484 325.556 64.1254 331.601C64.8343 336.702 65.9841 341.731 67.5619 346.633C67.9059 346.45 68.2542 346.281 68.6111 346.124L68.4624 346.399C67.9725 347.248 67.5194 348.119 67.1031 349.01C66.8225 349.59 66.5799 350.187 66.3767 350.797C65.833 352.495 65.748 354.304 65.6716 356.091C65.6327 356.434 65.663 356.782 65.7608 357.114C65.9944 357.755 66.6656 358.082 67.29 358.26C69.1251 358.782 71.0323 358.595 72.9396 358.349C72.9484 358.391 72.9612 358.433 72.9778 358.472C73.2114 359.113 73.8783 359.44 74.507 359.619C77.1321 360.366 79.9017 359.661 82.6075 359.406C85.3134 359.152 87.9725 359.338 90.5764 358.714C90.9645 358.631 91.3371 358.488 91.6808 358.29C92.3503 357.822 92.8414 357.141 93.0741 356.358C93.1556 356.156 93.2099 355.943 93.2355 355.726C93.3417 354.796 92.5473 353.977 91.7063 353.667ZM82.7222 314.354C82.5757 315.348 82.2897 316.317 81.8727 317.232C79.8293 321.574 78.3641 326.165 77.5144 330.888C76.9569 334.008 76.6346 337.165 76.5502 340.333C76.5077 342.668 76.5969 345.113 75.6242 347.21L75.9767 347.155C75.8663 347.359 75.7601 347.58 75.6581 347.741L75.6072 347.834C75.0188 346.833 74.6254 345.73 74.4475 344.583C74.4475 344.544 74.2564 344.515 73.9633 344.498C72.7625 337.792 72.3462 330.97 72.7229 324.168C72.7286 323.343 72.8429 322.523 73.0627 321.727C73.2794 321.044 73.6447 320.42 73.9123 319.758C74.3366 318.645 74.622 317.485 74.7619 316.302C75.2245 313.28 75.4037 310.222 75.2971 307.167C75.1951 304.285 75.862 301.419 76.4312 298.549C76.7031 297.187 76.9537 295.82 77.0896 294.453L77.1151 294.177C79.6424 298.344 81.4086 302.926 82.3314 307.71C82.8445 309.886 82.9767 312.133 82.7222 314.354ZM64.5417 253.005L64.6776 253.123C65.0882 253.484 65.4663 253.881 65.8075 254.308C65.9773 254.494 66.0997 254.718 66.1643 254.961C66.2918 255.581 65.7778 256.108 65.3573 256.562C65.1745 256.759 65.0029 256.966 64.8433 257.182C64.7527 255.789 64.6564 254.397 64.5544 253.005H64.5417Z" fill="url(#paint1_linear_0_74)"/>
<path d="M58.6627 226.397L58.1955 230.001C58.0383 231.223 57.8811 232.442 57.7962 233.668C57.5116 237.752 58.0383 241.853 57.9024 245.945C57.7919 249.095 57.2907 252.24 57.5328 255.386C57.7495 258.162 58.5395 260.862 59.3296 263.537L60.451 267.357C60.4894 267.557 60.5871 267.74 60.7314 267.883C60.9475 268.011 61.2041 268.052 61.4493 267.998L66.4277 267.548C66.1091 266.088 65.7565 264.577 65.5781 263.078C65.4422 261.906 65.3615 260.726 65.2765 259.546C65.0132 255.87 64.7116 252.194 64.427 248.509L63.896 242.057C63.6709 239.255 63.4372 236.44 62.7321 233.719C62.0246 230.971 60.6234 228.45 58.6627 226.397Z" fill="#498DE4"/>
<path opacity="0.1" d="M58.6627 226.397L58.1955 230.001C58.0383 231.223 57.8811 232.442 57.7962 233.668C57.5116 237.752 58.0383 241.853 57.9024 245.945C57.7919 249.095 57.2907 252.24 57.5328 255.386C57.7495 258.162 58.5395 260.862 59.3296 263.537L60.451 267.357C60.4894 267.557 60.5871 267.74 60.7314 267.883C60.9475 268.011 61.2041 268.052 61.4493 267.998L66.4277 267.548C66.1091 266.088 65.7565 264.577 65.5781 263.078C65.4422 261.906 65.3615 260.726 65.2765 259.546C65.0132 255.87 64.7116 252.194 64.427 248.509L63.896 242.057C63.6709 239.255 63.4372 236.44 62.7321 233.719C62.0246 230.971 60.6234 228.45 58.6627 226.397Z" fill="black"/>
<path d="M67.5321 349.087C67.2399 349.661 66.9845 350.254 66.7675 350.861C66.1983 352.538 66.1134 354.338 66.0284 356.108C65.9909 356.449 66.0227 356.794 66.1219 357.122C66.3682 357.759 67.0734 358.082 67.7318 358.256C70.4886 358.999 73.3941 358.303 76.2273 358.048C79.0606 357.793 81.8599 357.98 84.5955 357.364C84.9994 357.286 85.39 357.151 85.7551 356.961C86.4478 356.51 86.965 355.836 87.2206 355.051C87.303 354.85 87.3587 354.638 87.3863 354.423C87.4755 353.489 86.6641 352.682 85.7806 352.376C84.8971 352.071 83.9328 352.118 83.0026 352.024C81.0866 351.828 79.2888 351.006 77.888 349.685C76.4872 348.364 75.5615 346.619 75.2546 344.718C75.2206 344.515 70.65 344.638 70.1573 344.901C69.5965 345.211 69.2567 345.979 68.9381 346.501C68.4369 347.342 67.9682 348.204 67.5321 349.087Z" fill="#A26565"/>
<path opacity="0.1" d="M67.5321 349.087C67.2399 349.661 66.9845 350.254 66.7675 350.861C66.1983 352.538 66.1134 354.338 66.0284 356.108C65.9909 356.449 66.0227 356.794 66.1219 357.122C66.3682 357.759 67.0734 358.082 67.7318 358.256C70.4886 358.999 73.3941 358.303 76.2273 358.048C79.0606 357.793 81.8599 357.98 84.5955 357.364C84.9994 357.286 85.39 357.151 85.7551 356.961C86.4478 356.51 86.965 355.836 87.2206 355.051C87.303 354.85 87.3587 354.638 87.3863 354.423C87.4755 353.489 86.6641 352.682 85.7806 352.376C84.8971 352.071 83.9328 352.118 83.0026 352.024C81.0866 351.828 79.2888 351.006 77.888 349.685C76.4872 348.364 75.5615 346.619 75.2546 344.718C75.2206 344.515 70.65 344.638 70.1573 344.901C69.5965 345.211 69.2567 345.979 68.9381 346.501C68.4369 347.342 67.9682 348.204 67.5321 349.087Z" fill="black"/>
<path d="M75.1144 350.437C74.8203 351.009 74.5649 351.6 74.3498 352.207C73.7764 353.905 73.6914 355.684 73.6107 357.454C73.5711 357.795 73.6029 358.14 73.7041 358.468C73.9463 359.105 74.6514 359.428 75.3098 359.606C78.0666 360.345 80.9764 359.648 83.8054 359.394C86.6344 359.139 89.4422 359.326 92.1735 358.71C92.5794 358.628 92.9704 358.485 93.3332 358.286C94.0268 357.836 94.5443 357.162 94.7987 356.375C94.881 356.174 94.9367 355.963 94.9643 355.747C95.0535 354.818 94.2422 354.007 93.3587 353.701C92.4751 353.395 91.5109 353.446 90.5806 353.349C88.6655 353.152 86.8686 352.331 85.468 351.011C84.0673 349.691 83.1411 347.946 82.8326 346.047C82.7987 345.844 78.228 345.962 77.7353 346.226C77.1703 346.535 76.8305 347.304 76.5119 347.826C76.0277 348.688 75.5519 349.554 75.1144 350.437Z" fill="#A26565"/>
<path d="M94.8794 305.342C94.9388 314.516 92.2712 323.481 89.1406 332.086C87.9002 335.499 86.5849 338.882 85.1944 342.236C84.3703 344.223 83.4401 346.43 84.3236 348.391C81.7749 347.423 79.1838 346.855 76.5034 347.3C77.5229 345.22 77.4252 342.801 77.4719 340.508C77.5585 337.367 77.8937 334.237 78.4744 331.148C79.3741 326.447 80.9163 321.892 83.0578 317.611C83.4907 316.708 83.7897 315.747 83.9456 314.758C84.2939 312.576 84.022 310.335 83.5675 308.174C82.5897 303.401 80.7315 298.852 78.0879 294.76L78.0624 295.031C77.9037 296.396 77.674 297.752 77.3742 299.094C76.7753 301.934 76.0744 304.778 76.1806 307.635C76.2914 310.664 76.1036 313.697 75.6199 316.689C75.4641 317.864 75.1572 319.014 74.7066 320.111C74.4135 320.769 74.0312 321.384 73.8019 322.068C73.5722 322.854 73.4522 323.668 73.445 324.488C73.1052 331.394 73.445 338.407 74.8553 345.178C72.4893 344.991 70.1233 345.675 68.0079 346.736C66.3539 341.889 65.1453 336.902 64.3972 331.836C63.4756 325.844 63.6627 319.735 64.9495 313.811C65.3505 311.836 65.5003 309.818 65.3955 307.805C65.2128 303.793 64.2273 299.871 63.2461 295.974L61.7509 290.031C61.0429 287.201 60.335 284.383 59.627 281.579C59.1555 279.707 58.6797 277.792 58.8284 275.865C58.9321 274.808 59.1544 273.765 59.4911 272.758C60.5516 269.33 62.1379 266.088 64.1934 263.147C72.3788 263.605 80.662 262.841 88.8305 262.213C89.2266 262.135 89.6376 262.204 89.9859 262.408C90.2643 262.691 90.4304 263.065 90.4532 263.461L93.5243 280.866C94.0216 283.285 94.3129 285.741 94.3951 288.21C94.3951 290.672 94.0128 293.125 94.1063 295.583C94.2337 298.894 94.8624 302.027 94.8794 305.342Z" fill="#454B69"/>
<path opacity="0.1" d="M78.0709 295.03C77.9122 296.395 77.6825 297.751 77.3827 299.093C75.6029 296.015 73.6829 293.014 72.0433 289.86C71.6185 289.049 71.2192 288.225 70.8156 287.402L69.605 284.94C69.3799 284.477 69.1548 284.014 68.9509 283.543C68.6189 282.866 68.3638 282.154 68.1905 281.421C68.7852 281.31 70.2549 282.915 70.6967 283.335C71.5978 284.227 72.4487 285.168 73.2454 286.154C74.213 287.25 75.1016 288.413 75.9045 289.635C76.9325 291.295 77.6655 293.12 78.0709 295.03Z" fill="black"/>
<path d="M84.8886 210.592C84.8886 210.592 80.3434 217.83 81.1845 219.346C82.0255 220.861 66.8694 218 66.8694 218C66.8694 218 75.1229 210.762 74.2776 207.731C73.4323 204.7 84.8886 210.592 84.8886 210.592Z" fill="#EFB7B9"/>
<path d="M80.8489 212.784C86.5239 212.784 91.1243 208.186 91.1243 202.515C91.1243 196.844 86.5239 192.246 80.8489 192.246C75.174 192.246 70.5735 196.844 70.5735 202.515C70.5735 208.186 75.174 212.784 80.8489 212.784Z" fill="#EFB7B9"/>
<path d="M85.0415 218.183C83.9412 216.657 82.4485 215.457 80.7215 214.71C79.7263 214.354 78.6972 214.101 77.6503 213.955L73.5512 213.233C72.5487 213.055 71.474 212.889 70.5395 213.301C70.067 213.543 69.6367 213.86 69.2652 214.239C67.8422 215.559 66.4617 217.007 64.6733 217.771C64.1848 217.979 63.6751 218.132 63.1866 218.34C61.1859 219.189 59.6907 220.997 58.8454 223.009C57.9533 225.106 57.9279 227.386 57.9958 229.666C57.9946 230.453 58.0729 231.238 58.2294 232.009C58.4339 232.743 58.6938 233.461 59.0068 234.157C59.5716 235.645 60.0454 237.166 60.4256 238.712C61.4875 242.773 62.371 246.876 63.0762 251.022C63.136 251.616 63.3105 252.193 63.5901 252.72C63.9862 253.248 64.4653 253.708 65.0089 254.083C65.4401 254.437 65.8369 254.831 66.194 255.259C66.372 255.434 66.5047 255.649 66.5806 255.887C66.7123 256.498 66.1558 257.025 65.731 257.471C64.8169 258.403 64.1561 259.553 63.811 260.811C63.598 261.07 63.4889 261.398 63.5052 261.733C63.5937 261.965 63.6271 262.215 63.6029 262.463C63.5193 262.688 63.3873 262.892 63.2163 263.061C63.0203 263.316 62.8811 263.611 62.8078 263.924C62.7346 264.237 62.729 264.562 62.7916 264.878C65.9755 266.261 69.3831 267.057 72.8503 267.23C73.6999 267.272 74.5494 267.272 75.399 267.374C76.0022 267.451 76.5969 267.574 77.2001 267.646C78.0754 267.728 78.9553 267.751 79.8337 267.714C84.4086 267.62 89.1151 267.506 93.3162 265.693C93.7112 263.541 92.8574 261.346 92.3222 259.224C91.4726 255.828 91.2602 252.351 90.6231 248.925C90.1983 246.586 89.5611 244.281 89.2001 241.925C88.839 239.569 88.7753 237.128 89.404 234.836C89.9774 232.807 90.1516 230.735 90.7463 228.71C91.3409 226.686 91.7572 224.491 91.0861 222.487C90.2365 220.008 87.6581 218.043 85.0415 218.183Z" fill="#498DE4"/>
<path d="M90.0879 197.068C90.5891 195.247 89.6037 193.35 88.4313 191.868C87.1569 190.276 85.5343 188.842 83.5421 188.442C81.9236 188.116 80.2458 188.51 78.5976 188.379C77.1406 188.264 75.7389 187.738 74.2904 187.53C72.9761 187.388 71.6483 187.438 70.3484 187.678C69.1149 187.862 67.9091 188.198 66.759 188.68C62.3838 190.62 59.8224 195.4 59.2277 200.142C58.633 204.884 59.6737 209.663 60.7102 214.329L61.6489 218.548C62.6259 222.942 63.6029 227.352 63.862 231.844C64.1211 236.335 63.6369 240.945 61.7891 245.046C67.7648 241.838 72.3949 236.599 74.8426 230.277C75.5052 228.541 75.998 226.737 76.7371 225.03C77.37 223.562 78.1813 222.169 78.7421 220.671C79.3758 218.98 79.6801 217.183 79.6383 215.377C79.6043 214.019 79.3792 212.669 79.4174 211.31C79.4557 209.952 79.804 208.538 80.7428 207.554C81.5923 206.683 82.7605 206.28 83.8351 205.716C85.527 204.847 87.0052 203.615 88.1636 202.107C88.839 201.224 88.8773 200.834 89.0472 199.832C89.2171 198.83 89.8245 198.032 90.0879 197.068Z" fill="#A26565"/>
<path d="M90.1006 274.204C90.2068 275.261 90.0156 276.327 90.245 277.375C90.4192 278.157 90.8227 278.861 91.0606 279.625C91.2959 280.508 91.4173 281.416 91.4217 282.329C91.4557 283.094 91.3962 284.027 90.7165 284.384C90.4192 284.541 90.0624 284.541 89.7523 284.677C89.4422 284.813 89.1788 285.182 89.3572 285.471C89.5356 285.759 89.8415 285.713 90.1219 285.768C90.4022 285.823 90.7038 286.112 90.5466 286.345C90.4827 286.422 90.3966 286.477 90.3003 286.502C90.0167 286.59 89.7475 286.718 89.5017 286.884C89.3815 286.972 89.2875 287.09 89.2299 287.227C89.1722 287.364 89.1531 287.514 89.1746 287.661C89.1917 287.731 89.2245 287.797 89.2706 287.853C89.3166 287.909 89.3747 287.953 89.4405 287.984C89.5063 288.014 89.5781 288.029 89.6504 288.027C89.7228 288.026 89.7939 288.008 89.8585 287.975C89.7338 288.241 89.6659 288.531 89.6588 288.824C90.7463 289.291 91.9654 288.68 92.9849 288.09C93.4257 287.844 93.8512 287.572 94.2592 287.275C95.0839 286.642 95.7411 285.817 96.1735 284.872C96.6059 283.928 96.8004 282.891 96.7399 281.854C96.6914 281.333 96.6105 280.816 96.4978 280.305C96.3409 279.415 96.1324 278.534 95.8734 277.668C95.5803 276.756 95.181 275.885 94.8369 274.99C94.1063 273.084 93.6348 271.089 92.9721 269.157C92.9278 268.957 92.8152 268.778 92.6535 268.652C92.5074 268.58 92.3444 268.549 92.182 268.563C91.4383 268.524 90.6929 268.592 89.9689 268.767C89.5441 268.894 88.8178 269.191 88.6181 269.616C88.4185 270.04 88.7371 270.397 88.9282 270.749C89.5387 271.814 89.9369 272.988 90.1006 274.204Z" fill="#EFB7B9"/>
<path opacity="0.1" d="M89.4082 222.623C89.6263 222.846 89.8096 223.101 89.9519 223.379C91.4132 226.032 91.4302 229.203 91.4981 232.23C91.5746 235.626 91.7615 239.022 91.9484 242.439L92.5049 252.627C92.5601 253.599 92.6111 254.571 92.7512 255.535C93.4054 255.701 93.4309 256.55 93.3587 257.233C92.8872 261.385 91.719 265.659 92.9339 269.654C92.9807 269.859 93.0786 270.049 93.2185 270.206C92.6016 270.013 91.9416 270.004 91.3197 270.18C90.7123 270.308 90.1261 270.533 89.5144 270.673C88.7413 270.847 87.8663 270.923 87.3396 271.522C86.7426 269.728 86.2672 267.895 85.9165 266.037C85.6277 264.339 85.547 262.59 84.8588 261.02C84.5827 260.387 84.2089 259.801 83.8691 259.194C82.0893 256.019 81.2142 252.432 80.3604 248.891C79.9773 247.213 79.8853 245.481 80.0886 243.772C80.2121 242.992 80.2831 242.205 80.301 241.416C80.2492 240.583 80.14 239.755 79.9739 238.937C79.613 236.537 79.7827 234.086 80.4709 231.759C81.108 229.598 81.6688 227.322 83.0196 225.506C84.3704 223.689 87.1526 222.653 89.4082 222.623Z" fill="black"/>
<path d="M89.9137 222.284C90.1319 222.509 90.3151 222.765 90.4574 223.044C91.9187 225.693 91.9357 228.868 92.0036 231.895C92.0801 235.291 92.267 238.687 92.4539 242.083L93.0103 252.271C93.0656 253.243 93.1165 254.215 93.2567 255.179C93.9109 255.344 93.9364 256.193 93.8599 256.877C93.3926 261.029 92.2245 265.299 93.4351 269.298C93.482 269.503 93.5799 269.693 93.7197 269.85C93.1028 269.657 92.4428 269.648 91.821 269.824C91.2135 269.952 90.6273 270.177 90.0157 270.312C89.2426 270.491 88.3675 270.563 87.8408 271.161C87.2457 269.359 86.7746 267.518 86.4305 265.651C86.1417 263.953 86.061 262.209 85.3728 260.638C85.074 260.013 84.7437 259.404 84.3831 258.813C82.599 255.637 81.7282 252.046 80.8744 248.506C80.4912 246.827 80.3993 245.096 80.6026 243.386C80.9225 241.786 80.8833 240.134 80.4879 238.551C80.1269 236.152 80.2966 233.703 80.9849 231.377C81.622 229.216 82.1827 226.941 83.5335 225.124C84.8843 223.307 87.6581 222.318 89.9137 222.284Z" fill="#498DE4"/>
<g opacity="0.1">
<path opacity="0.1" d="M88.4312 191.868C87.1569 190.276 85.5343 188.842 83.542 188.443C81.9236 188.116 80.2458 188.511 78.5976 188.379C77.1406 188.264 75.7389 187.738 74.2904 187.53C72.9761 187.388 71.6483 187.438 70.3484 187.679C69.1149 187.862 67.9091 188.198 66.759 188.68C66.1378 188.958 65.5446 189.295 64.9877 189.686C66.0114 189.289 67.0754 189.004 68.1608 188.837C69.4592 188.597 70.7857 188.547 72.0985 188.689C73.5512 188.876 74.9488 189.398 76.41 189.512C78.0539 189.644 79.7318 189.253 81.3544 189.576C83.3466 189.975 84.9778 191.414 86.2394 193.006C87.416 194.483 88.3973 196.381 87.9003 198.206C87.6369 199.166 87.0252 200.006 86.8596 200.995C86.6939 201.984 86.6514 202.388 85.9718 203.271C85.1003 204.403 84.0467 205.383 82.8539 206.17C83.181 206.017 83.5166 205.864 83.8351 205.699C85.5269 204.83 87.0052 203.598 88.1636 202.09C88.839 201.207 88.8773 200.817 89.0472 199.815C89.2171 198.813 89.8245 197.99 90.0879 197.026C90.5891 195.247 89.6036 193.35 88.4312 191.868Z" fill="black"/>
<path opacity="0.1" d="M80.7427 207.58C80.9187 207.397 81.1106 207.231 81.3162 207.083C80.335 207.558 79.3027 207.974 78.5509 208.781C77.6121 209.762 77.2766 211.179 77.2256 212.538C77.1746 213.896 77.4167 215.246 77.4465 216.6C77.4882 218.407 77.184 220.205 76.5502 221.898C75.9895 223.397 75.1781 224.785 74.5452 226.258C73.8104 227.956 73.3176 229.764 72.655 231.5C70.5314 236.982 66.7607 241.671 61.8613 244.923C61.8359 244.978 61.8146 245.038 61.7891 245.093C67.7648 241.885 72.3949 236.647 74.8426 230.325C75.5052 228.588 75.998 226.784 76.7371 225.078C77.37 223.609 78.1813 222.217 78.742 220.718C79.3758 219.027 79.68 217.23 79.6383 215.424C79.6043 214.066 79.3792 212.716 79.4174 211.358C79.4557 209.999 79.804 208.565 80.7427 207.58Z" fill="black"/>
</g>
<defs>
<linearGradient id="paint0_linear_0_74" x1="211.312" y1="0.572937" x2="211.313" y2="407.565" gradientUnits="userSpaceOnUse">
<stop stop-color="#316BBF"/>
<stop offset="1" stop-color="#7A5CD0"/>
</linearGradient>
<linearGradient id="paint1_linear_0_74" x1="76.2146" y1="359.937" x2="76.2146" y2="185.933" gradientUnits="userSpaceOnUse">
<stop stop-color="#808080" stop-opacity="0.25"/>
<stop offset="0.54" stop-color="#808080" stop-opacity="0.12"/>
<stop offset="1" stop-color="#808080" stop-opacity="0.1"/>
</linearGradient>
</defs>
</svg>
